<svg id="Layer_1" data-name="Layer 1" xmlns="http://www.w3.org/2000/svg" viewBox="0 0 1766 460"><defs><style>.cls-1{fill:#0077d4;stroke:#0077d4;}.cls-1,.cls-3{stroke-miterlimit:10;stroke-width:2px;}.cls-2,.cls-3{fill:#f2f2f2;}.cls-3{stroke:#fff;}.cls-4{fill:#fff;}</style></defs><rect class="cls-1" x="1" y="1" width="1764" height="458" rx="73.5"/><path id="rect65" class="cls-2" d="M207,803H348.36V944.36H207Z" transform="translate(-119 -721)"/><path id="rect165" class="cls-2" d="M358.26,944.36V803H499.63V944.36Z" transform="translate(-119 -721)"/><path id="rect413" class="cls-2" d="M207,954.25H348.36v141.37H207Z" transform="translate(-119 -721)"/><path id="rect415" class="cls-2" d="M358.26,1095.62V954.25H499.63v141.37Z" transform="translate(-119 -721)"/><path id="path19153" class="cls-2" d="M766.85,933.26l-42.12,152H695.91L666.65,979a72.73,72.73,0,0,1-2.25-14.85H664a70.58,70.58,0,0,1-2.57,14.63L632,1085.31H602.57l-43-152h28l27.86,111.33a80.08,80.08,0,0,1,2.14,14.63h.54a81.31,81.31,0,0,1,3-14.63l31.5-111.33h26.26L708,1045.44a86.82,86.82,0,0,1,2.25,13.57h.43a82,82,0,0,1,2.46-14l27.33-111.75Z" transform="translate(-119 -721)"/><path id="path19201" class="cls-2" d="M803.86,1085.31H779V976.73h24.87Z" transform="translate(-119 -721)"/><path id="path19155" class="cls-2" d="M791.45,960.86a14.78,14.78,0,0,1-10.2-3.81,12.53,12.53,0,0,1-4.16-9.67,12.89,12.89,0,0,1,4.16-9.78,14.55,14.55,0,0,1,10.2-3.91,14.81,14.81,0,0,1,10.4,3.91,13.09,13.09,0,0,1,0,19.35A14.81,14.81,0,0,1,791.45,960.86Z" transform="translate(-119 -721)"/><path id="path19157" class="cls-2" d="M926.85,1085.31H902.24v-61.18c0-18.12-7.18-30-21.54-30-7.49,0-13.68,2.5-18.56,8.16s-7.32,13.07-7.32,21.06v61.93H830.1V976.73h24.72v14.84c4.58-7.94,18.1-17.39,34.32-17.39,15.9,0,23.8,5.14,29.36,12,6.23,7.64,8.35,17.71,8.35,32.73Z" transform="translate(-119 -721)"/><path id="path20723" class="cls-2" d="M1026.94,924.56v62.29h-1.88c-3.73-6.61-14.93-12.67-30.38-12.67q-22.11,0-35.44,16.23T946,1033.56c0,16.76,4.12,29.68,12.09,39.44,8.45,10.17,20.68,13.64,31.91,13.64,19.57,0,30.44-8.82,36.17-15.7h.75v14.37h24.54V924.56Zm-26.22,69.67c15.23-.85,27.79,14,26.55,28.79-.11,10.93,1.23,22.72-5.47,32.22-5.35,9.63-16.94,13.76-27.46,12-13.33-1.32-21.42-14.54-22.66-26.87-1.31-13.28-.23-28.48,9.33-38.73,5.07-5.33,12.51-7.54,19.71-7.46Z" transform="translate(-119 -721)"/><path id="path22175" class="cls-2" d="M1128.13,973.61q-26.31,0-41.89,15.47t-15.48,43q0,25.29,14.84,40.65t39.9,15.26q25.68,0,40.84-15.69t15.26-41.93q0-26.67-14.1-41.72t-39.37-15Zm-1.39,20.85c9.8-.39,19.82,4.51,24.41,13.38,5.94,11.19,6.07,24.68,3.6,36.86-2.13,10.29-9.82,19.9-20.53,21.79-11.27,2.5-24.39-.79-31.17-10.64-7.74-10.94-8-25.47-5.25-38.13,2.52-11.44,11.86-21.64,23.86-22.91a35.94,35.94,0,0,1,5.08-.35Z" transform="translate(-119 -721)"/><path id="path19163" class="cls-2" d="M1349.3,976.59l-32.37,108.72h-26l-20.67-73.68a52.86,52.86,0,0,1-1.5-6.58h-.43c-.8,2.56-.79,2.54-1.93,6.36l-20.9,73.9H1220L1187.7,976.59h25.72l19.18,78.35a44.79,44.79,0,0,1,1.29,6.36h.75c.82-3.2.79-3.17,1.71-6.57l22.93-78.14h23.36l20.47,78.67c.64,2.48.65,2.47,1.39,6.36h.75c.68-2.77.68-2.75,1.61-6.36l18.75-78.67Z" transform="translate(-119 -721)"/><path id="path19165" class="cls-2" d="M1356.43,1081.91v-24.28c8.48,6,18,9.93,28.31,9.93,12.88,0,18.56-3.87,18.56-11.09,0-2.48.1-2.6-.78-4.79a12.51,12.51,0,0,0-3.67-4.65,43.09,43.09,0,0,0-7.1-3.93c-2.7-1.06-5.73-2.68-9.08-4a98.24,98.24,0,0,1-11.25-5.62,38.6,38.6,0,0,1-8.28-7.43,26.6,26.6,0,0,1-4.93-8.58,33.6,33.6,0,0,1-1.68-11.14,26.93,26.93,0,0,1,3.45-13.78,30.46,30.46,0,0,1,9.27-10.07,41.62,41.62,0,0,1,13.07-6.62,56.58,56.58,0,0,1,15.44-2.26,65.2,65.2,0,0,1,25.06,5.16v23c-5.6-5.28-19.12-8.53-24.23-8.51a37.38,37.38,0,0,0-5.44.18,20,20,0,0,0-6,2.27,12.41,12.41,0,0,0-3.84,4.14,10,10,0,0,0-1.38,5.19,11.91,11.91,0,0,0,1.38,5.94,13.67,13.67,0,0,0,4,4.35,41.82,41.82,0,0,0,6.51,3.39c2.57,1,2.88,1.46,6.17,2.66a118.88,118.88,0,0,1,11.64,5.83,38.15,38.15,0,0,1,8.88,6.79,28.86,28.86,0,0,1,6,9.22c1.32,3.25,1.61,7.56,1.61,12.09a28.31,28.31,0,0,1-3.55,14.42,30.73,30.73,0,0,1-9.47,10.18,42,42,0,0,1-13.71,5.94,64.13,64.13,0,0,1-16.27,2q-16.58,0-28.71-5.94Z" transform="translate(-119 -721)"/><path id="path19167" class="cls-2" d="M1528.13,929.86v155.45h-24.86V960a81.07,81.07,0,0,1-14.57,8.16A122.57,122.57,0,0,1,1471,974V953q6.21-2,12-4.24t11.36-5q5.67-2.75,11.36-6.15t11.89-7.74Z" transform="translate(-119 -721)"/><path class="cls-3" d="M1661.11,1004.93c0,52.65-19.53,81.71-53.83,81.71-30.26,0-50.74-28.35-51.22-79.57,0-51.93,22.39-80.51,53.84-80.51C1642.53,926.56,1661.11,955.62,1661.11,1004.93Zm-84.09,2.38c0,40.26,12.39,63.13,31.45,63.13,21.44,0,31.68-25,31.68-64.56,0-38.11-9.77-63.12-31.45-63.12C1590.36,942.76,1577,965.15,1577,1007.31Z" transform="translate(-119 -721)"/><path class="cls-3" d="M1782,939.65v65.53h63v16.73h-63V1088h-17.85v-66.09h-63v-16.73h63V939.65Z" transform="translate(-119 -721)"/><path class="cls-4" d="M551.76,808.4a149.54,149.54,0,0,1,22.2-1.68c15,0,25.67,3.48,32.75,10.08s11.4,16,11.4,29-4.08,24-11.64,31.44-20,11.64-35.76,11.64a168.45,168.45,0,0,1-19-1Zm10.44,71.52a65.87,65.87,0,0,0,10.55.6c22.32,0,34.44-12.48,34.44-34.32.12-19.08-10.68-31.2-32.75-31.2a59.32,59.32,0,0,0-12.24,1.08Z" transform="translate(-119 -721)"/><path class="cls-4" d="M684.35,858.68c0,21.48-14.88,30.84-28.92,30.84-15.72,0-27.84-11.52-27.84-29.88,0-19.44,12.72-30.84,28.8-30.84C673.07,828.8,684.35,840.92,684.35,858.68Zm-46.08.6c0,12.72,7.32,22.32,17.64,22.32,10.08,0,17.64-9.48,17.64-22.56,0-9.84-4.92-22.32-17.4-22.32S638.27,848.24,638.27,859.28Z" transform="translate(-119 -721)"/><path class="cls-4" d="M701,830.12l7.68,29.52c1.68,6.48,3.24,12.48,4.32,18.48h.36c1.32-5.88,3.24-12.12,5.16-18.36L728,830.12h8.88l9,29c2.16,7,3.84,13.08,5.16,19h.36a174.65,174.65,0,0,1,4.44-18.84l8.28-29.16h10.44L755.87,888.2h-9.6l-8.88-27.72a193.56,193.56,0,0,1-5.16-19.08H732a171.85,171.85,0,0,1-5.28,19.2l-9.36,27.6h-9.6l-17.51-58.08Z" transform="translate(-119 -721)"/><path class="cls-4" d="M785.15,845.84c0-6-.12-10.92-.48-15.72H794l.6,9.6h.24c2.88-5.52,9.6-10.92,19.2-10.92,8,0,20.52,4.8,20.52,24.72V888.2H824V854.72c0-9.36-3.48-17.16-13.44-17.16a15,15,0,0,0-14.16,10.8,15.18,15.18,0,0,0-.72,4.92V888.2H785.15Z" transform="translate(-119 -721)"/><path class="cls-4" d="M851.75,803h10.56v85.2H851.75Z" transform="translate(-119 -721)"/><path class="cls-4" d="M932.63,858.68c0,21.48-14.88,30.84-28.92,30.84-15.72,0-27.84-11.52-27.84-29.88,0-19.44,12.72-30.84,28.8-30.84C921.35,828.8,932.63,840.92,932.63,858.68Zm-46.08.6c0,12.72,7.32,22.32,17.64,22.32,10.08,0,17.64-9.48,17.64-22.56,0-9.84-4.92-22.32-17.4-22.32S886.55,848.24,886.55,859.28Z" transform="translate(-119 -721)"/><path class="cls-4" d="M978.11,888.2l-.84-7.32h-.36a21.63,21.63,0,0,1-17.76,8.64c-11.76,0-17.76-8.28-17.76-16.68,0-14,12.48-21.72,34.92-21.6V850c0-4.8-1.32-13.44-13.2-13.44A28.94,28.94,0,0,0,948,840.92l-2.4-7c4.8-3.12,11.76-5.16,19.08-5.16,17.76,0,22.08,12.12,22.08,23.76v21.72a81.78,81.78,0,0,0,1,13.92Zm-1.56-29.64c-11.52-.24-24.6,1.8-24.6,13.08,0,6.84,4.56,10.08,10,10.08A14.45,14.45,0,0,0,976,872a11,11,0,0,0,.6-3.36Z" transform="translate(-119 -721)"/><path class="cls-4" d="M1054,803v70.2c0,5.16.12,11,.48,15H1045l-.48-10.08h-.24c-3.24,6.48-10.32,11.4-19.8,11.4-14,0-24.84-11.88-24.84-29.52-.12-19.32,11.88-31.2,26-31.2,8.88,0,14.88,4.2,17.52,8.88h.24V803Zm-10.56,50.76a18.64,18.64,0,0,0-.48-4.44,15.53,15.53,0,0,0-15.24-12.24c-10.92,0-17.4,9.6-17.4,22.44,0,11.76,5.76,21.48,17.16,21.48,7.08,0,13.56-4.68,15.48-12.6a18.34,18.34,0,0,0,.48-4.56Z" transform="translate(-119 -721)"/><path class="cls-4" d="M1097.27,807.32h43.56v8.76h-33.12V843h30.6v8.64h-30.6v36.6h-10.44Z" transform="translate(-119 -721)"/><path class="cls-4" d="M1204.19,858.68c0,21.48-14.88,30.84-28.92,30.84-15.72,0-27.84-11.52-27.84-29.88,0-19.44,12.72-30.84,28.8-30.84C1192.91,828.8,1204.19,840.92,1204.19,858.68Zm-46.08.6c0,12.72,7.32,22.32,17.64,22.32,10.08,0,17.64-9.48,17.64-22.56,0-9.84-4.92-22.32-17.4-22.32S1158.11,848.24,1158.11,859.28Z" transform="translate(-119 -721)"/><path class="cls-4" d="M1217.51,848.24c0-6.84-.12-12.72-.48-18.12h9.24l.36,11.4h.48c2.64-7.8,9-12.72,16.08-12.72a11.42,11.42,0,0,1,3,.36v10a15.86,15.86,0,0,0-3.6-.36c-7.44,0-12.72,5.64-14.16,13.56a29.72,29.72,0,0,0-.48,4.92v31h-10.44Z" transform="translate(-119 -721)"/></svg>